<svg id="Layer_1" data-name="Layer 1" xmlns="http://www.w3.org/2000/svg" viewBox="0 0 727.61 282.51">
  <title>alc</title>
  <g>
    <path class="cls-1" d="M192.74,506.13l2.2,4.85h0.29c1.64-2.07,2.79-4.56,4.27-4.85,1.73-.34,3.8,1.45,4.35,1.7l8.37-1.63-9.2-5.86c2.83-4.34,4.66-9.41,8-11.67,4.4-3,8.71-5.21,11-11,0.32-.81,5,0.56,7.17.86l12.34-10,2.7,10.05,5.78-4.55c0.05,0.36.1,0.73,0.15,1.1a56.11,56.11,0,0,1,6-1.48c1.6-.23,3.38.49,4.86,0,4-1.38,8-4.8,11.78-4.42,5.28,0.52,8.32-1.72,11.43-5.54,0.51-.61,2.1-0.57,3-0.22,3.91,1.52,7.75,3.28,12.37,5.27-0.76,2.29-1.67,5-2.7,8.06l6.51-2.89c3.39,3.68,7.28,7.56,13,2.76,1-.86,3.76.91,6.65,1.74l-3.28,2.32,1.79,1c1.24,4.34,2.12,7.43,3.45,12.09,1.79-7.11,5.44-7.38,10-6.12-0.31,1.65-.58,3.13-0.94,5.11,1.79-.35,4,0,5.09-1.14,2.13-2.15,3.4-4.91,6.69-1.55,1.06,1.08,3.59.46,5.44,0.36,2.22-.13,4.43-0.53,8-1l-3.66,8.12,15.25,7.76c0,2.12-.05,4.23-0.84,5.6H411V424H141.55v87h49.21c0.2-1.12.43-2.36,0.66-3.63Z" transform="translate(-141.55 -424)"/>
    <g>
      <path class="cls-1" d="M386.38,526.1c-0.19.9,1.11,2.21,1.78,3.44L384,530l5,3.06q0.1,0.67.2,1.34l-8.55,1.51,4.15,6.38,14.79,1.73c-0.73,2.3-1.44,4.53-2.33,7.37h9.48l-3.71,12L394,572.14c0.41,2.71.93,6.16,1.61,10.63l-7-3.25-2,3.68c-0.67-4.69-8.75-1.28-5.87-10.44-3.76,8.26-3,10.61,2.85,13.05,0.94,0.4,2.27,2,2.16,2.85-0.69,5.77,3.22,6.15,6.37,7.4,2.43,1,4.92,1.76,7.2,3.69H392l1.48,7.49c-2.87,1.95-5.27.1-5.73-6.67-3.27,8.39-6.85,1.58-10,.84-3.75-.87-7.15-3.72-10.71-5.72L365.76,598l12.67,11.52H411v-87.2H386.36A6.72,6.72,0,0,1,386.38,526.1Z" transform="translate(-141.55 -424)"/>
      <path class="cls-1" d="M167.56,605.88l-0.48-1.43c2.23-1.58,4.37-4.2,6.74-4.51,3.88-.52,6.84-1.38,7.36-6.77l4.3,5.3,1.66-7.61c-2.84-.09-5.74-0.64-8.49-0.1-2.29.44-4.38,2.16-7,3.56-0.19-6.36,0-11.27-2.65-16.26-1.3,4.17-1.71,7.35-3.19,9.64-1.3,2-3.8,3-6.23,4.77l2,3.75-11.25-.7,14.25-14.13c-0.39-7-2.57-9.55-11.46-12.65-0.44-2.19-.85-4.18-1.25-6.14l-5.1,2-0.59-1.38,2-2c-0.36-2.61-1.74-6.1-.8-7.35,1.72-2.29,4.81-3.27,7.38-4.83,0.46-3,.77-7.26,1.92-11.19,0.34-1.16,3.26-2.35,4.62-1.95,4,1.19,5.65.56,7.46-3.51,0.84-1.9,2.46-3.35,3.46-5.19a33.11,33.11,0,0,0,1.81-4.82H141.55v87.2H175.3a7.37,7.37,0,0,0-1.77-4.12Z" transform="translate(-141.55 -424)"/>
    </g>
    <path class="cls-1" d="M363.16,621H351l12.59,7.59L362.89,630,359,629c0.91,2.12,1.51,3.53,2.23,5.24L355.69,636l-1.89-6.09-5.31,2.25c-2.37-3.4-4.54-7-9.3-3.48l2.8,4.21c-4.12-1.84-7,7.3-11.23.66-6.48,1.76-4.29-8.09-9.85-7.64l-4.86,3.62c0.16,0.85.43,2.42,0.71,4l-1.61.35c-0.37-2.42-1.07-4.85-1-7.25a35.89,35.89,0,0,1,.68-5.58h-7.35c-6.3,4.17-11.85,12.3-12.88,20.63-0.8,6.41-.41,13-0.27,19.53,0.1,4.72,2.4,7,6.88,6.95,6.93-.11,13.86.14,20.79,0.41a12.2,12.2,0,0,1,7,2.31H236c0-.44-0.09-0.89-0.14-1.34,1.74-.17,3.48-0.4,5.23-0.5,8.86-.53,17.73-0.94,26.59-1.57,5.41-.39,7.27-4.5,7.1-9.81-0.33-10.46-3.43-19.78-10.29-27.17-1.17-1.26-3.15-2.69-4.52-2.44-5.11.94-10.12,2.55-15.53,4l-3.82-3.42c-0.41,2.08-.44,4.08-1.21,5.64-0.84,1.72-2.35,3-3.57,4.5-1.55-1.79-3.07-3.61-4.65-5.36s-3.41-3.63-5.71-6.07c-0.41,2.55-.62,3.83-0.86,5.27l-4.24-1.67,7.31-9.89h-5.23l0.59,0.74-12.52,9.81,2.71,3.66-8.51,1.43,2.12,3.92-15.36,4.92,3.13-6.28L187,642.25l-0.39-.63,2.18-2.26-3.27-9.16c-1.3,1-4,2.08-4.11,3.34-0.49,8.81-6.55,9-12.91,11.12l2.23-9.17-8.11,2.9,0.36,1.22c-1.3-.61-2.59-1.28-3.91-1.84-0.94-.4-1.94-0.65-2.92-1,0.85-1,1.56-2.23,2.59-2.83,2.25-1.33,4.66-2.31,6.51-3.21l-3.31-6,1.51-1.09L169.3,629c0.6-3,4.9-4.48,4.57-8.05H141.55v85.54H411V621H375l7.06,4.65C374.77,626.79,368.71,624.76,363.16,621Z" transform="translate(-141.55 -424)"/>
  </g>
  <g>
    <g>
      <path class="cls-1" d="M448,434.47h11.63l27.6,76H475.9L468,487.74H438.12l-8.25,22.78H419.31ZM465,479.36l-11.71-33.6-12.17,33.6H465Z" transform="translate(-141.55 -424)"/>
      <path class="cls-1" d="M494.46,434.21h9.06v27.59a20.42,20.42,0,0,1,16.58-8.18q10.39,0,16.87,7.12t6.47,21q0,13.15-6.39,21.85t-17.72,8.7a18.22,18.22,0,0,1-10.71-3.05,25.83,25.83,0,0,1-5.56-5.8v7.09h-8.59V434.21ZM530.09,498q3.77-6,3.77-15.84,0-8.75-3.77-14.5T519,462a15.49,15.49,0,0,0-11.19,4.71q-4.8,4.71-4.8,15.53a34.22,34.22,0,0,0,2,12.68q3.69,9.16,13.77,9.16Q526.32,504.05,530.09,498Z" transform="translate(-141.55 -424)"/>
      <path class="cls-1" d="M563.52,455.08v36.81a15.86,15.86,0,0,0,1.31,6.94q2.42,5,9,5,9.48,0,12.91-8.7,1.86-4.66,1.86-12.79V455.08h9.32v55.45h-8.8l0.1-8.18a18.73,18.73,0,0,1-4.42,5.33,19.21,19.21,0,0,1-12.7,4.35q-11.64,0-15.85-7.92Q554,499.86,554,492.77V455.08h9.53Z" transform="translate(-141.55 -424)"/>
      <path class="cls-1" d="M613.16,455.08H622v7.87a24.87,24.87,0,0,1,8.33-7,22.23,22.23,0,0,1,9.79-2.12q11.8,0,15.94,8.23,2.28,4.5,2.28,12.89v35.57h-9.47V475.58a19,19,0,0,0-1.5-8.18q-2.49-5.17-9-5.18a18.39,18.39,0,0,0-5.44.67,14,14,0,0,0-6.73,4.56,13.72,13.72,0,0,0-3,5.67,38.1,38.1,0,0,0-.7,8.36v29h-9.32V455.08Z" transform="translate(-141.55 -424)"/>
      <path class="cls-1" d="M702.59,456.79a25,25,0,0,1,5.62,5.44v-28h9v76.31h-8.39v-7.71a20.11,20.11,0,0,1-7.69,7.4,21.94,21.94,0,0,1-10.16,2.28q-9.23,0-16-7.79T668.2,484a35.89,35.89,0,0,1,6.16-21q6.16-8.88,17.61-8.88A19.58,19.58,0,0,1,702.59,456.79Zm-20.8,41.57q3.76,6,12.05,6a12.67,12.67,0,0,0,10.58-5.56q4.15-5.57,4.15-16t-4.28-15.56a13.31,13.31,0,0,0-10.56-5,13.91,13.91,0,0,0-11.36,5.38Q678,473,678,483.45,678,492.35,681.79,498.36Z" transform="translate(-141.55 -424)"/>
      <path class="cls-1" d="M760.81,477q3.21-.41,4.3-2.69a8.27,8.27,0,0,0,.62-3.59q0-4.78-3.38-6.94t-9.69-2.16q-7.29,0-10.33,4a13.09,13.09,0,0,0-2.22,6.5h-8.7q0.26-10.28,6.64-14.3a27.2,27.2,0,0,1,14.81-4q9.77,0,15.87,3.73t6,11.6V501a4.09,4.09,0,0,0,.6,2.33,2.88,2.88,0,0,0,2.51.88q0.62,0,1.4-.08c0.52-.05,1.07-0.13,1.66-0.23v6.88a26.08,26.08,0,0,1-3.31.78,24.09,24.09,0,0,1-3.11.16q-4.82,0-7-3.42a13.19,13.19,0,0,1-1.6-5.12,23.71,23.71,0,0,1-8.18,6.47A25.32,25.32,0,0,1,746,512.39a17.49,17.49,0,0,1-12.61-4.68A15.53,15.53,0,0,1,728.51,496q0-7.7,4.81-11.94A22.94,22.94,0,0,1,746,478.83Zm-19.62,25.17a11,11,0,0,0,7,2.32,21.28,21.28,0,0,0,9.53-2.27q7.77-3.77,7.77-12.35v-7.5a15.88,15.88,0,0,1-4.39,1.82,37.1,37.1,0,0,1-5.27,1l-5.63.72a21.78,21.78,0,0,0-7.62,2.12,8.24,8.24,0,0,0-4.32,7.75A7.65,7.65,0,0,0,741.19,502.14Z" transform="translate(-141.55 -424)"/>
      <path class="cls-1" d="M790.06,455.08h8.85v7.87a24.88,24.88,0,0,1,8.33-7,22.23,22.23,0,0,1,9.78-2.12q11.8,0,15.95,8.23,2.28,4.5,2.28,12.89v35.57h-9.47V475.58a18.92,18.92,0,0,0-1.5-8.18q-2.48-5.17-9-5.18a18.4,18.4,0,0,0-5.44.67,14,14,0,0,0-6.73,4.56,13.72,13.72,0,0,0-3,5.67,38.15,38.15,0,0,0-.7,8.36v29h-9.32V455.08Z" transform="translate(-141.55 -424)"/>
      <path class="cls-1" d="M850.89,439.6h9.42v15.48h8.85v7.61h-8.85v36.19q0,2.9,2,3.88a8.34,8.34,0,0,0,3.62.57c0.45,0,.93,0,1.45,0s1.12-.08,1.81-0.17v7.4a20.74,20.74,0,0,1-3.34.67,31.72,31.72,0,0,1-3.75.21q-6.52,0-8.85-3.34a14.86,14.86,0,0,1-2.33-8.67v-36.7h-7.51v-7.61h7.51V439.6Z" transform="translate(-141.55 -424)"/>
    </g>
    <g>
      <path class="cls-1" d="M419.31,534.68h10.2V601h37.76v9h-48V534.68Z" transform="translate(-141.55 -424)"/>
      <path class="cls-1" d="M476.44,534.68h9.37v10.45h-9.37V534.68Zm0,20.65h9.37v54.62h-9.37V555.33Z" transform="translate(-141.55 -424)"/>
      <path class="cls-1" d="M504.06,538.32q3.23-4.71,12.45-4.71c0.58,0,1.18,0,1.79.05s1.31,0.09,2.1.15v8.4l-2.1-.13-1.22,0q-4.25,0-5.08,2.18t-0.83,11.09h9.22v7.28h-9.22v47.34h-9.12V562.61h-7.63v-7.28h7.63v-8.61Q502.27,541,504.06,538.32Z" transform="translate(-141.55 -424)"/>
      <path class="cls-1" d="M562.81,556.59a20.78,20.78,0,0,1,8.3,7.09,24.53,24.53,0,0,1,3.67,9.68,63.71,63.71,0,0,1,.82,12.09H535.68q0.25,8.38,3.91,13.44T550.93,604a14.57,14.57,0,0,0,11.44-4.79,16.28,16.28,0,0,0,3.39-6.43h9.07a19.08,19.08,0,0,1-2.38,6.74,24.19,24.19,0,0,1-4.52,6.07,21.27,21.27,0,0,1-10.32,5.53,31.13,31.13,0,0,1-7.47.82,22.91,22.91,0,0,1-17.26-7.46q-7.08-7.46-7.08-20.88,0-13.22,7.13-21.47t18.64-8.25A24.75,24.75,0,0,1,562.81,556.59Zm3.3,21.54a24.07,24.07,0,0,0-2.59-9.58q-3.76-6.66-12.55-6.66a13.86,13.86,0,0,0-10.57,4.59,17.41,17.41,0,0,0-4.52,11.66h30.23Z" transform="translate(-141.55 -424)"/>
    </g>
    <g>
      <path class="cls-1" d="M471.06,640.9q7.13,6.88,7.92,15.64h-9.09a19,19,0,0,0-6-10.54q-4.53-3.89-12.72-3.89A20.22,20.22,0,0,0,435,649.26q-6.14,7.15-6.14,21.91,0,12.09,5.54,19.62t16.54,7.52q10.12,0,15.41-7.92a30.42,30.42,0,0,0,4.19-11h9.09a31.24,31.24,0,0,1-8,18.22q-8.1,8.85-21.85,8.85-11.85,0-19.91-7.26-10.6-9.6-10.6-29.66,0-15.23,8-25Q435.88,634,451,634,463.93,634,471.06,640.9Z" transform="translate(-141.55 -424)"/>
      <path class="cls-1" d="M490.54,635.65H499v25.66a24.27,24.27,0,0,1,5.39-5.34,18.16,18.16,0,0,1,10.16-2.67q10.91,0,14.8,7.63,2.11,4.17,2.11,11.57v32.17h-8.66V673.07q0-5.53-1.4-8.1-2.3-4.12-8.62-4.12a14.37,14.37,0,0,0-9.51,3.61Q499,668.06,499,678.08v26.6h-8.43v-69Z" transform="translate(-141.55 -424)"/>
      <path class="cls-1" d="M552.32,654.52v33.3a14.36,14.36,0,0,0,1.19,6.28q2.19,4.49,8.16,4.49,8.57,0,11.68-7.87,1.69-4.21,1.69-11.57V654.52h8.43v50.16h-8l0.09-7.4a17,17,0,0,1-4,4.82A17.39,17.39,0,0,1,560.1,706q-10.52,0-14.34-7.17-2.07-3.84-2.07-10.26V654.52h8.62Z" transform="translate(-141.55 -424)"/>
      <path class="cls-1" d="M597.46,654.52h8v8.66q1-2.53,4.82-6.16a12.52,12.52,0,0,1,8.85-3.63l0.8,0,1.92,0.19v8.9a12.2,12.2,0,0,0-1.38-.19c-0.42,0-.88,0-1.38,0q-6.37,0-9.79,4.1a14.3,14.3,0,0,0-3.42,9.44v28.85h-8.43V654.52Z" transform="translate(-141.55 -424)"/>
      <path class="cls-1" d="M662.3,657.19q5.31,4.12,6.39,14.19h-8.2a15.13,15.13,0,0,0-3.42-7.7q-2.67-3.07-8.57-3.07-8.06,0-11.52,7.86a31.21,31.21,0,0,0-2.25,12.58,23.65,23.65,0,0,0,3.18,12.68q3.18,5.15,10,5.14a11,11,0,0,0,8.31-3.2,17.54,17.54,0,0,0,4.24-8.75h8.2q-1.41,10-7,14.59t-14.38,4.61q-9.83,0-15.69-7.19t-5.85-18q0-13.21,6.42-20.56a20.73,20.73,0,0,1,16.34-7.36Q657,653.07,662.3,657.19Z" transform="translate(-141.55 -424)"/>
      <path class="cls-1" d="M677.12,635.65h8.43v25.66a24.31,24.31,0,0,1,5.39-5.34,18.16,18.16,0,0,1,10.16-2.67q10.91,0,14.8,7.63,2.11,4.17,2.11,11.57v32.17h-8.66V673.07q0-5.53-1.4-8.1-2.3-4.12-8.62-4.12a14.36,14.36,0,0,0-9.51,3.61q-4.26,3.61-4.26,13.63v26.6h-8.43v-69Z" transform="translate(-141.55 -424)"/>
    </g>
  </g>
</svg>
